<svg width="24" height="24" viewBox="0 0 24 24" fill="none" xmlns="http://www.w3.org/2000/svg">
<path fill-rule="evenodd" clip-rule="evenodd" d="M3.00297 6.7C2.94197 5.779 3.72597 5 4.71397 5H19.286C20.272 5 21.056 5.775 20.997 6.694L20.187 19.494C20.134 20.34 19.384 21 18.477 21H5.57097C4.66497 21 3.91597 20.343 3.85997 19.5L3.00297 6.7ZM4.71397 6.371C4.57397 6.371 4.46097 6.483 4.46997 6.614L5.32697 19.414C5.33497 19.534 5.44197 19.629 5.57197 19.629H18.476C18.606 19.629 18.713 19.534 18.721 19.413L19.531 6.613C19.538 6.483 19.427 6.371 19.286 6.371H4.71397Z" fill="black"/>
<path fill-rule="evenodd" clip-rule="evenodd" d="M7 4.941C7 2.212 9.239 0 12 0C14.761 0 17 2.212 17 4.941V7.294C16.9995 7.38724 16.9806 7.47946 16.9444 7.5654C16.9083 7.65134 16.8555 7.72932 16.7892 7.79488C16.7229 7.86044 16.6444 7.91229 16.558 7.94749C16.4717 7.98268 16.3792 8.00053 16.286 8C16.1927 8.00066 16.1001 7.98291 16.0137 7.94778C15.9272 7.91264 15.8485 7.8608 15.7821 7.79523C15.7157 7.72966 15.6629 7.65164 15.6267 7.56563C15.5904 7.47963 15.5715 7.38732 15.571 7.294V4.941C15.571 2.991 13.972 1.411 12 1.411C10.028 1.411 8.429 2.991 8.429 4.941V7.294C8.42848 7.38732 8.40956 7.47963 8.37333 7.56563C8.3371 7.65164 8.28427 7.72966 8.21787 7.79523C8.15146 7.8608 8.07278 7.91264 7.98632 7.94778C7.89986 7.98291 7.80732 8.00066 7.714 8C7.62076 8.00053 7.52833 7.98268 7.44199 7.94749C7.35565 7.91229 7.27708 7.86044 7.21078 7.79488C7.14448 7.72932 7.09174 7.65134 7.05557 7.5654C7.01941 7.47946 7.00052 7.38724 7 7.294V4.941Z" fill="black"/>
</svg>
