<svg width="19" height="20" viewBox="0 0 19 20" fill="none" xmlns="http://www.w3.org/2000/svg">
<path d="M17.9806 15.0617L12.8895 9.97056L17.9806 4.87939C18.9178 3.94219 18.9178 2.42248 17.9806 1.48528C17.0434 0.548082 15.5237 0.548082 14.5865 1.48528L9.49536 6.57645L4.40419 1.48528C3.46699 0.548082 1.94728 0.548082 1.01008 1.48528C0.0728804 2.42248 0.0728804 3.94219 1.01008 4.87939L6.10125 9.97056L1.01008 15.0617C0.0728804 15.9989 0.0728804 17.5186 1.01008 18.4558C1.94728 19.393 3.46699 19.393 4.40419 18.4558L9.49536 13.3647L14.5865 18.4558C15.5237 19.393 17.0434 19.393 17.9806 18.4558C18.9178 17.5186 18.9178 15.9989 17.9806 15.0617Z" fill="#BDBDCB"/>
</svg>
