<svg width="250" height="250" viewBox="0 0 250 250" fill="none" xmlns="http://www.w3.org/2000/svg">
<path d="M118.75 222.5C173.288 222.5 217.5 178.848 217.5 125C217.5 71.1522 173.288 27.5 118.75 27.5C64.212 27.5 20 71.1522 20 125C20 178.848 64.212 222.5 118.75 222.5Z" fill="#EDEEF2"/>
<path d="M199.24 125.179C199.24 117.796 201.661 110.199 199.832 103.392C197.94 96.3483 191.972 90.981 188.388 84.8153C184.751 78.5598 183.029 70.7493 177.929 65.6725C172.828 60.5958 164.981 58.882 158.696 55.262C152.502 51.6943 147.11 45.7543 140.033 43.8713C133.194 42.0508 125.561 44.4605 118.145 44.4605C110.728 44.4605 103.095 42.0508 96.2564 43.8713C89.1799 45.7543 83.7877 51.6943 77.5932 55.262C71.3084 58.882 63.4614 60.5958 58.3612 65.6725C53.2607 70.7493 51.5387 78.5598 47.9019 84.8153C44.3174 90.981 38.3499 96.3483 36.4579 103.392C34.6289 110.199 37.0502 117.796 37.0502 125.179C37.0502 132.561 34.6289 140.158 36.4579 146.965C38.3499 154.009 44.3174 159.376 47.9019 165.542C51.5387 171.797 53.2607 179.608 58.3612 184.685C63.4614 189.761 71.3084 191.475 77.5932 195.095C83.7877 198.663 89.1799 204.603 96.2564 206.486C103.095 208.306 110.728 205.896 118.145 205.896C125.561 205.896 133.194 208.306 140.033 206.486C147.11 204.603 152.502 198.663 158.696 195.095C164.981 191.475 172.828 189.761 177.929 184.685C183.029 179.608 184.751 171.797 188.388 165.542C191.972 159.376 197.94 154.009 199.832 146.965C201.661 140.158 199.24 132.559 199.24 125.179Z" fill="white"/>
<path d="M119 143.654C128.291 143.654 135.823 136.157 135.823 126.909C135.823 117.661 128.291 110.163 119 110.163C109.708 110.163 102.176 117.661 102.176 126.909C102.176 136.157 109.708 143.654 119 143.654Z" fill="#EDEEF2"/>
<path d="M172.942 131.653C182.233 131.653 189.765 124.156 189.765 114.908C189.765 105.659 182.233 98.1622 172.942 98.1622C163.65 98.1622 156.118 105.659 156.118 114.908C156.118 124.156 163.65 131.653 172.942 131.653Z" fill="#EDEEF2"/>
<path d="M140.6 94.2895C149.892 94.2895 157.424 86.7923 157.424 77.5438C157.424 68.2955 149.892 60.7983 140.6 60.7983C131.309 60.7983 123.777 68.2955 123.777 77.5438C123.777 86.7923 131.309 94.2895 140.6 94.2895Z" fill="#EDEEF2"/>
<path d="M85.8982 98.1333C95.1897 98.1333 102.722 90.636 102.722 81.3878C102.722 72.1395 95.1897 64.6423 85.8982 64.6423C76.6067 64.6423 69.0747 72.1395 69.0747 81.3878C69.0747 90.636 76.6067 98.1333 85.8982 98.1333Z" fill="#EDEEF2"/>
<path d="M64.3286 150.616C73.6201 150.616 81.1524 143.119 81.1524 133.871C81.1524 124.622 73.6201 117.125 64.3286 117.125C55.0371 117.125 47.5049 124.622 47.5049 133.871C47.5049 143.119 55.0371 150.616 64.3286 150.616Z" fill="#EDEEF2"/>
<path d="M97.1735 192.557C106.465 192.557 113.997 185.06 113.997 175.812C113.997 166.563 106.465 159.066 97.1735 159.066C87.882 159.066 80.3497 166.563 80.3497 175.812C80.3497 185.06 87.882 192.557 97.1735 192.557Z" fill="#EDEEF2"/>
<path d="M151.299 181.843C160.591 181.843 168.123 174.345 168.123 165.097C168.123 155.849 160.591 148.352 151.299 148.352C142.008 148.352 134.476 155.849 134.476 165.097C134.476 174.345 142.008 181.843 151.299 181.843Z" fill="#EDEEF2"/>
<path d="M204.347 225C184.963 225 178.702 221.754 178.702 207.533C178.702 194.272 182.918 187.54 183.069 174.032C183.263 156.818 178.702 151.292 178.702 142.779C178.702 132.795 178.702 122.42 178.702 103.281C178.702 87.9088 194.043 75.5503 194.457 56.2758C194.465 55.8473 194.106 55.4898 193.676 55.4835C192.336 55.4605 192.235 55.2933 192.231 54.8023C192.193 49.8948 192.292 44.4293 192.855 43.867C193.892 42.8283 200.796 42.7405 204.351 42.7405C207.906 42.7405 214.81 42.8283 215.848 43.867C216.41 44.4293 216.507 49.8948 216.471 54.8023C216.467 55.2933 216.366 55.4605 215.027 55.4835C214.596 55.492 214.235 55.8473 214.245 56.2758C214.657 75.5503 230 87.9088 230 103.281C230 122.42 230 132.795 230 142.779C230 151.294 225.44 156.818 225.633 174.032C225.784 187.542 230 194.272 230 207.533C229.992 221.754 223.73 225 204.347 225Z" fill="#EDEEF2"/>
<path d="M204.605 106.365C210.657 106.365 216.555 106.177 221.825 105.78C222.722 105.713 223.48 106.411 223.48 107.306V136.289C223.48 137.043 222.936 137.691 222.187 137.804C216.952 138.596 210.797 138.966 204.605 138.966C194.656 138.966 184.745 138.034 178.699 135.894V104.856C185.599 105.904 194.944 106.365 204.605 106.365Z" fill="white"/>
</svg>
