<svg width="16" height="16" viewBox="0 0 16 16" fill="none" xmlns="http://www.w3.org/2000/svg">
<g clip-path="url(#clip0_108233_2)">
<path fill-rule="evenodd" clip-rule="evenodd" d="M12.407 0.257863C12.5737 0.0926766 12.7988 0 13.0335 0C13.2682 0 13.4933 0.0926766 13.66 0.257863L15.74 2.33786C15.8224 2.42007 15.8878 2.51772 15.9324 2.62522C15.977 2.73273 15.9999 2.84797 15.9999 2.96436C15.9999 3.08075 15.977 3.196 15.9324 3.3035C15.8878 3.41101 15.8224 3.50866 15.74 3.59086L14.113 5.21686L10.781 1.88386L12.407 0.257863ZM0 12.6649L9.83 2.83486L13.163 6.16786L3.333 15.9979H0V12.6649Z" fill="#BDBDCB"/>
</g>
<defs>
<clipPath id="clip0_108233_2">
<rect width="16" height="16" fill="white"/>
</clipPath>
</defs>
</svg>
