<svg width="26" height="26" viewBox="0 0 26 26" fill="none" xmlns="http://www.w3.org/2000/svg">
<g clip-path="url(#clip0_108197_2)">
<path d="M13.5681 1.395L16.6201 8.972L24.4361 9.676C24.9781 9.726 25.1981 10.434 24.7861 10.808L18.8591 16.194L20.6351 24.206C20.7581 24.763 20.1831 25.201 19.7171 24.905L13.0011 20.657L6.28406 24.905C5.81706 25.199 5.24406 24.761 5.36606 24.205L7.14306 16.194L1.21306 10.807C0.802058 10.433 1.02106 9.724 1.56506 9.675L9.38006 8.97L12.4331 1.394C12.4759 1.27801 12.5533 1.17794 12.6548 1.10726C12.7562 1.03658 12.8769 0.998687 13.0006 0.998687C13.1242 0.998687 13.2449 1.03658 13.3464 1.10726C13.4478 1.17794 13.5252 1.27901 13.5681 1.395Z" fill="#FCA95D" stroke="#FCA95D"/>
</g>
<defs>
<clipPath id="clip0_108197_2">
<rect width="26" height="26" fill="white"/>
</clipPath>
</defs>
</svg>
