<svg width="450" height="450" viewBox="0 0 450 450" fill="none" xmlns="http://www.w3.org/2000/svg">
<path d="M213.75 400.5C311.918 400.5 391.5 321.926 391.5 225C391.5 128.074 311.918 49.5 213.75 49.5C115.582 49.5 36 128.074 36 225C36 321.926 115.582 400.5 213.75 400.5Z" fill="#EDEEF2"/>
<path d="M358.632 225.322C358.632 212.033 362.99 198.358 359.698 186.106C356.292 173.427 345.55 163.766 339.098 152.668C332.552 141.408 329.452 127.349 320.272 118.211C311.09 109.073 296.966 105.988 285.653 99.4717C274.504 93.0498 264.798 82.3578 252.059 78.9684C239.749 75.6915 226.01 80.029 212.661 80.029C199.31 80.029 185.571 75.6915 173.262 78.9684C160.524 82.3578 150.818 93.0498 139.668 99.4717C128.355 105.988 114.231 109.073 105.05 118.211C95.8693 127.349 92.7697 141.408 86.2235 152.668C79.7714 163.766 69.0299 173.427 65.6243 186.106C62.3321 198.358 66.6904 212.033 66.6904 225.322C66.6904 238.61 62.3321 252.284 65.6243 264.537C69.0299 277.216 79.7714 286.877 86.2235 297.976C92.7697 309.235 95.8693 323.294 105.05 332.433C114.231 341.57 128.355 344.655 139.668 351.171C150.818 357.593 160.524 368.285 173.262 371.675C185.571 374.951 199.31 370.613 212.661 370.613C226.01 370.613 239.749 374.951 252.059 371.675C264.798 368.285 274.504 357.593 285.653 351.171C296.966 344.655 311.09 341.57 320.272 332.433C329.452 323.294 332.552 309.235 339.098 297.976C345.55 286.877 356.292 277.216 359.698 264.537C362.99 252.284 358.632 238.606 358.632 225.322Z" fill="white"/>
<path d="M214.2 258.577C230.924 258.577 244.481 245.083 244.481 228.436C244.481 211.79 230.924 198.293 214.2 198.293C197.474 198.293 183.917 211.79 183.917 228.436C183.917 245.083 197.474 258.577 214.2 258.577Z" fill="#EDEEF2"/>
<path d="M311.296 236.975C328.019 236.975 341.577 223.481 341.577 206.834C341.577 190.186 328.019 176.692 311.296 176.692C294.57 176.692 281.012 190.186 281.012 206.834C281.012 223.481 294.57 236.975 311.296 236.975Z" fill="#EDEEF2"/>
<path d="M253.08 169.721C269.806 169.721 283.363 156.226 283.363 139.579C283.363 122.932 269.806 109.437 253.08 109.437C236.356 109.437 222.799 122.932 222.799 139.579C222.799 156.226 236.356 169.721 253.08 169.721Z" fill="#EDEEF2"/>
<path d="M154.617 176.64C171.341 176.64 184.9 163.145 184.9 146.498C184.9 129.851 171.341 116.356 154.617 116.356C137.892 116.356 124.334 129.851 124.334 146.498C124.334 163.145 137.892 176.64 154.617 176.64Z" fill="#EDEEF2"/>
<path d="M115.791 271.109C132.516 271.109 146.074 257.614 146.074 240.968C146.074 224.32 132.516 210.825 115.791 210.825C99.0667 210.825 85.5088 224.32 85.5088 240.968C85.5088 257.614 99.0667 271.109 115.791 271.109Z" fill="#EDEEF2"/>
<path d="M174.912 346.603C191.637 346.603 205.195 333.108 205.195 316.462C205.195 299.813 191.637 286.319 174.912 286.319C158.188 286.319 144.63 299.813 144.63 316.462C144.63 333.108 158.188 346.603 174.912 346.603Z" fill="#EDEEF2"/>
<path d="M272.338 327.317C289.064 327.317 302.621 313.821 302.621 297.175C302.621 280.528 289.064 267.034 272.338 267.034C255.614 267.034 242.057 280.528 242.057 297.175C242.057 313.821 255.614 327.317 272.338 327.317Z" fill="#EDEEF2"/>
<path d="M367.825 405C332.933 405 321.664 399.157 321.664 373.559C321.664 349.69 329.252 337.572 329.524 313.258C329.873 282.272 321.664 272.326 321.664 257.002C321.664 239.031 321.664 220.356 321.664 185.906C321.664 158.236 349.277 135.99 350.023 101.296C350.037 100.525 349.391 99.8816 348.617 99.8703C346.205 99.8289 346.023 99.5279 346.016 98.6441C345.947 89.8106 346.126 79.9727 347.139 78.9606C349.006 77.0909 361.433 76.9329 367.832 76.9329C374.231 76.9329 386.658 77.0909 388.526 78.9606C389.538 79.9727 389.713 89.8106 389.648 98.6441C389.641 99.5279 389.459 99.8289 387.049 99.8703C386.273 99.8856 385.623 100.525 385.641 101.296C386.383 135.99 414 158.236 414 185.906C414 220.356 414 239.031 414 257.002C414 272.329 405.792 282.272 406.139 313.258C406.411 337.576 414 349.69 414 373.559C413.986 399.157 402.714 405 367.825 405Z" fill="#EDEEF2"/>
<path d="M368.289 191.457C379.183 191.457 389.799 191.119 399.285 190.404C400.9 190.283 402.264 191.54 402.264 193.151V245.32C402.264 246.677 401.285 247.844 399.937 248.047C390.514 249.473 379.435 250.139 368.289 250.139C350.381 250.139 332.541 248.461 321.658 244.609V188.741C334.078 190.627 350.899 191.457 368.289 191.457Z" fill="white"/>
</svg>
