<svg width="18" height="19" viewBox="0 0 18 19" fill="none" xmlns="http://www.w3.org/2000/svg">
<g clip-path="url(#clip0_108225_2)">
<path fill-rule="evenodd" clip-rule="evenodd" d="M6.545 0H11.727C12.681 0 13.454 0.773 13.454 1.727V2.591H16.045C16.999 2.591 17.773 3.364 17.773 4.318V6.045C17.773 6.999 16.999 7.773 16.046 7.773H15.976L15.182 17.273C15.182 18.227 14.408 19 13.455 19H4.818C3.864 19 3.091 18.227 3.094 17.344L2.296 7.773H2.227C2.00012 7.773 1.77547 7.7283 1.56587 7.64144C1.35628 7.55459 1.16585 7.42729 1.00547 7.26682C0.845093 7.10635 0.717904 6.91585 0.631173 6.7062C0.544442 6.49656 0.499869 6.27188 0.5 6.045V4.318C0.5 3.364 1.273 2.591 2.227 2.591H4.818V1.727C4.818 0.773 5.591 0 6.545 0ZM4.818 4.318H2.228V6.045H16.045V4.318H4.818ZM14.243 7.773H4.03L4.82 17.273H13.456L13.459 17.201L14.244 7.773H14.243ZM11.727 1.727V2.591H6.545V1.727H11.727Z" fill="#BDBDCB"/>
</g>
<defs>
<clipPath id="clip0_108225_2">
<rect width="18" height="19" fill="white"/>
</clipPath>
</defs>
</svg>
